<?xml version="1.0" standalone="no"?>
<!DOCTYPE svg PUBLIC "-//W3C//DTD SVG 20010904//EN"
 "http://www.w3.org/TR/2001/REC-SVG-20010904/DTD/svg10.dtd">
<svg version="1.0" xmlns="http://www.w3.org/2000/svg"
 width="400.000000pt" height="400.000000pt" viewBox="0 0 400.000000 400.000000"
 preserveAspectRatio="xMidYMid meet">
<metadata>
Created by potrace 1.11, written by Peter Selinger 2001-2013
</metadata>
<g transform="translate(0.000000,400.000000) scale(0.100000,-0.100000)"
fill="#000000" stroke="none">
<path d="M0 1995 l0 -1635 2000 0 2000 0 0 1635 0 1635 -2000 0 -2000 0 0
-1635z m3819 0 l1 -1455 -1820 0 -1819 0 -1 1455 0 1455 1820 0 1819 0 0
-1455z"/>
<path d="M604 3028 c-3 -4 -3 -11 -1 -15 5 -7 62 -228 212 -818 25 -99 87
-340 136 -535 50 -195 92 -362 94 -370 8 -36 75 -294 80 -311 6 -18 21 -19
255 -19 228 0 249 1 254 18 14 48 67 253 230 894 58 226 109 457 131 596 8 50
12 50 20 2 3 -19 10 -57 15 -85 5 -27 12 -61 14 -75 17 -89 61 -276 110 -465
32 -121 78 -299 102 -395 25 -96 57 -218 70 -270 14 -52 27 -102 29 -110 2 -8
9 -36 15 -62 l12 -48 252 0 252 0 11 48 c5 26 36 146 67 267 62 239 64 247 70
273 2 9 42 168 89 352 171 670 279 1095 283 1116 4 20 0 20 -204 20 -114 -1
-212 -4 -218 -8 -6 -4 -16 -33 -23 -65 -7 -32 -23 -103 -36 -158 -13 -55 -26
-111 -29 -125 -2 -14 -16 -74 -31 -135 -15 -60 -29 -119 -31 -130 -7 -33 -10
-48 -87 -380 -41 -176 -77 -336 -80 -355 -3 -19 -9 -46 -12 -60 -9 -45 -26
-144 -32 -195 -3 -27 -7 -51 -8 -53 -2 -2 -8 30 -14 70 -10 59 -60 324 -76
401 -5 24 -30 118 -55 212 -12 44 -23 87 -25 95 -2 8 -24 96 -50 194 -26 99
-48 186 -50 195 -2 9 -20 77 -39 151 -20 74 -48 182 -63 240 l-28 105 -207 1
-208 1 -14 -51 c-8 -28 -29 -107 -46 -176 -18 -69 -47 -181 -65 -250 -18 -69
-50 -190 -70 -270 -21 -80 -51 -194 -67 -255 -29 -106 -33 -124 -42 -163 -2
-9 -9 -35 -14 -57 -6 -22 -13 -52 -16 -68 -3 -15 -7 -35 -10 -45 -3 -9 -8 -35
-11 -57 -4 -22 -8 -44 -9 -50 -1 -5 -8 -50 -16 -100 -14 -99 -29 -140 -31 -90
-1 35 -3 50 -17 130 -6 33 -16 85 -21 115 -5 30 -14 75 -20 100 -5 25 -12 56
-15 70 -4 23 -33 155 -41 190 -2 8 -13 56 -25 105 -12 50 -23 98 -25 108 -2
10 -20 87 -40 170 -67 278 -93 391 -110 467 -9 41 -23 98 -31 126 l-13 50
-211 0 c-116 0 -213 -3 -216 -8z"/>
</g>
</svg>
